{
    "asset" : {
        "generator" : "Khronos glTF Blender I/O v1.1.46",
        "version" : "2.0"
    },
    "scene" : 0,
    "scenes" : [
        {
            "name" : "Scene",
            "nodes" : [
                0
            ]
        }
    ],
    "nodes" : [
        {
            "mesh" : 0,
            "name" : "Cylinder009",
            "rotation" : [
                -0.14093701541423798,
                -0.8071573972702026,
                0.5597450137138367,
                0.12377070635557175
            ],
            "scale" : [
                0.010905261151492596,
                0.016851020976901054,
                0.011631040833890438
            ],
            "translation" : [
                0.13052235543727875,
                0.47923120856285095,
                -0.3180110454559326
            ]
        }
    ],
    "meshes" : [
        {
            "name" : "Mesh.004",
            "primitives" : [
                {
                    "attributes" : {
                        "POSITION" : 0,
                        "NORMAL" : 1
                    },
                    "indices" : 2
                },
                {
                    "attributes" : {
                        "POSITION" : 3,
                        "NORMAL" : 4
                    },
                    "indices" : 5
                }
            ]
        }
    ],
    "accessors" : [
        {
            "bufferView" : 0,
            "componentType" : 5126,
            "count" : 332,
            "max" : [
                26.707622528076172,
                -9.296586036682129,
                37.056602478027344
            ],
            "min" : [
                -16.98509979248047,
                -37.706993103027344,
                -53.249542236328125
            ],
            "type" : "VEC3"
        },
        {
            "bufferView" : 1,
            "componentType" : 5126,
            "count" : 332,
            "type" : "VEC3"
        },
        {
            "bufferView" : 2,
            "componentType" : 5123,
            "count" : 459,
            "type" : "SCALAR"
        },
        {
            "bufferView" : 3,
            "componentType" : 5126,
            "count" : 454,
            "max" : [
                72.21528625488281,
                24.004913330078125,
                -34.03634262084961
            ],
            "min" : [
                -28.22049331665039,
                -67.52186584472656,
                -104.49977111816406
            ],
            "type" : "VEC3"
        },
        {
            "bufferView" : 4,
            "componentType" : 5126,
            "count" : 454,
            "type" : "VEC3"
        },
        {
            "bufferView" : 5,
            "componentType" : 5123,
            "count" : 456,
            "type" : "SCALAR"
        }
    ],
    "bufferViews" : [
        {
            "buffer" : 0,
            "byteLength" : 3984,
            "byteOffset" : 0
        },
        {
            "buffer" : 0,
            "byteLength" : 3984,
            "byteOffset" : 3984
        },
        {
            "buffer" : 0,
            "byteLength" : 918,
            "byteOffset" : 7968
        },
        {
            "buffer" : 0,
            "byteLength" : 5448,
            "byteOffset" : 8888
        },
        {
            "buffer" : 0,
            "byteLength" : 5448,
            "byteOffset" : 14336
        },
        {
            "buffer" : 0,
            "byteLength" : 912,
            "byteOffset" : 19784
        }
    ],
    "buffers" : [
        {
            "byteLength" : 20696,
            "uri" : "tree.bin"
        }
    ]
}
