{
    "asset" : {
        "generator" : "Khronos glTF Blender I/O v1.1.46",
        "version" : "2.0"
    },
    "scene" : 0,
    "scenes" : [
        {
            "name" : "Scene",
            "nodes" : [
                0
            ]
        }
    ],
    "nodes" : [
        {
            "mesh" : 0,
            "name" : "kadlub",
            "rotation" : [
                0,
                0,
                0.7071067690849304,
                0.7071068286895752
            ],
            "scale" : [
                0.013168806210160255,
                0.013168806210160255,
                0.024181164801120758
            ],
            "translation" : [
                -0.2972989082336426,
                0,
                0.21415741741657257
            ]
        }
    ],
    "materials" : [
        {
            "doubleSided" : true,
            "emissiveFactor" : [
                0,
                0,
                0
            ],
            "name" : "Material #49",
            "pbrMetallicRoughness" : {
                "baseColorFactor" : [
                    0.268838107585907,
                    0.4779474139213562,
                    0.6363636255264282,
                    1
                ],
                "metallicFactor" : 0,
                "roughnessFactor" : 0.5527864098548889
            }
        },
        {
            "doubleSided" : true,
            "emissiveFactor" : [
                0,
                0,
                0
            ],
            "name" : "Material #62",
            "pbrMetallicRoughness" : {
                "baseColorFactor" : [
                    0.09348124265670776,
                    0.054129138588905334,
                    0.03199358284473419,
                    1
                ],
                "metallicFactor" : 0,
                "roughnessFactor" : 0.5527864098548889
            }
        },
        {
            "doubleSided" : true,
            "emissiveFactor" : [
                0,
                0,
                0
            ],
            "name" : "Material #64",
            "pbrMetallicRoughness" : {
                "baseColorFactor" : [
                    0.572549045085907,
                    0.658823549747467,
                    0.7647058963775635,
                    1
                ],
                "metallicFactor" : 0,
                "roughnessFactor" : 0.5527864098548889
            }
        }
    ],
    "meshes" : [
        {
            "name" : "Mesh.002",
            "primitives" : [
                {
                    "attributes" : {
                        "POSITION" : 0,
                        "NORMAL" : 1,
                        "TEXCOORD_0" : 2
                    },
                    "indices" : 3,
                    "material" : 0
                },
                {
                    "attributes" : {
                        "POSITION" : 4,
                        "NORMAL" : 5,
                        "TEXCOORD_0" : 6
                    },
                    "indices" : 7,
                    "material" : 1
                },
                {
                    "attributes" : {
                        "POSITION" : 8,
                        "NORMAL" : 9,
                        "TEXCOORD_0" : 10
                    },
                    "indices" : 11,
                    "material" : 2
                }
            ]
        }
    ],
    "accessors" : [
        {
            "bufferView" : 0,
            "componentType" : 5126,
            "count" : 604,
            "max" : [
                -0.08509589731693268,
                95.12496948242188,
                -0.15618538856506348
            ],
            "min" : [
                -22.124969482421875,
                -200.2532958984375,
                -17.694114685058594
            ],
            "type" : "VEC3"
        },
        {
            "bufferView" : 1,
            "componentType" : 5126,
            "count" : 604,
            "type" : "VEC3"
        },
        {
            "bufferView" : 2,
            "componentType" : 5126,
            "count" : 604,
            "type" : "VEC2"
        },
        {
            "bufferView" : 3,
            "componentType" : 5123,
            "count" : 2184,
            "type" : "SCALAR"
        },
        {
            "bufferView" : 4,
            "componentType" : 5126,
            "count" : 2786,
            "max" : [
                28.746976852416992,
                95.2952880859375,
                1.1462132930755615
            ],
            "min" : [
                -12.385307312011719,
                -200.2532958984375,
                -18.99651336669922
            ],
            "type" : "VEC3"
        },
        {
            "bufferView" : 5,
            "componentType" : 5126,
            "count" : 2786,
            "type" : "VEC3"
        },
        {
            "bufferView" : 6,
            "componentType" : 5126,
            "count" : 2786,
            "type" : "VEC2"
        },
        {
            "bufferView" : 7,
            "componentType" : 5123,
            "count" : 7827,
            "type" : "SCALAR"
        },
        {
            "bufferView" : 8,
            "componentType" : 5126,
            "count" : 852,
            "max" : [
                27.229673385620117,
                95.2952880859375,
                -0.2556527853012085
            ],
            "min" : [
                -11.66470718383789,
                -200.2532958984375,
                -17.57257080078125
            ],
            "type" : "VEC3"
        },
        {
            "bufferView" : 9,
            "componentType" : 5126,
            "count" : 852,
            "type" : "VEC3"
        },
        {
            "bufferView" : 10,
            "componentType" : 5126,
            "count" : 852,
            "type" : "VEC2"
        },
        {
            "bufferView" : 11,
            "componentType" : 5123,
            "count" : 2058,
            "type" : "SCALAR"
        }
    ],
    "bufferViews" : [
        {
            "buffer" : 0,
            "byteLength" : 7248,
            "byteOffset" : 0
        },
        {
            "buffer" : 0,
            "byteLength" : 7248,
            "byteOffset" : 7248
        },
        {
            "buffer" : 0,
            "byteLength" : 4832,
            "byteOffset" : 14496
        },
        {
            "buffer" : 0,
            "byteLength" : 4368,
            "byteOffset" : 19328
        },
        {
            "buffer" : 0,
            "byteLength" : 33432,
            "byteOffset" : 23696
        },
        {
            "buffer" : 0,
            "byteLength" : 33432,
            "byteOffset" : 57128
        },
        {
            "buffer" : 0,
            "byteLength" : 22288,
            "byteOffset" : 90560
        },
        {
            "buffer" : 0,
            "byteLength" : 15654,
            "byteOffset" : 112848
        },
        {
            "buffer" : 0,
            "byteLength" : 10224,
            "byteOffset" : 128504
        },
        {
            "buffer" : 0,
            "byteLength" : 10224,
            "byteOffset" : 138728
        },
        {
            "buffer" : 0,
            "byteLength" : 6816,
            "byteOffset" : 148952
        },
        {
            "buffer" : 0,
            "byteLength" : 4116,
            "byteOffset" : 155768
        }
    ],
    "buffers" : [
        {
            "byteLength" : 159884,
            "uri" : "Los2.bin"
        }
    ]
}
